<svg version="1.1" xmlns="http://www.w3.org/2000/svg" xmlns:xlink="http://www.w3.org/1999/xlink" x="0px" y="0px" viewBox="0 0 76.023 61.769" enable-background="new 0 0 76.023 61.769" xml:space="preserve">
	<g>
		<path fill="#FFFFFF" d="M57.395,61.445L47.205,14.579c-0.037-0.178-0.22-0.324-0.402-0.324H29.428 c-0.184,0-0.365,0.146-0.406,0.324L18.629,61.445c-0.039,0.178,0.078,0.324,0.263,0.324h8.836c0.183,0,0.366-0.146,0.404-0.324 l1.646-7.338c0.041-0.178,0.223-0.324,0.406-0.324h15.311c0.184,0,0.371,0.146,0.42,0.322l1.962,7.342 c0.047,0.179,0.237,0.322,0.42,0.322h8.836C57.315,61.769,57.434,61.623,57.395,61.445 M43.703,44.619H32.181 c-0.184,0-0.303-0.146-0.265-0.325l4.477-20.974c0.038-0.179,0.218-0.325,0.401-0.325h2.433c0.184,0,0.364,0.146,0.4,0.326 l4.343,20.973C44.006,44.472,43.887,44.619,43.703,44.619"/>
		<path fill="#FFFFFF" d="M73.34,19.224c0,6.362-1.698,12.333-4.653,17.494l2.113,1.73 c3.313-5.641,5.224-12.208,5.224-19.224c0-7.015-1.91-13.582-5.224-19.223L68.687,1.73C71.642,6.893,73.34,12.862,73.34,19.224"/>
		<path fill="#FFFFFF" d="M2.681,19.224c0-6.362,1.699-12.331,4.656-17.494L5.224,0 C1.908,5.641,0,12.208,0,19.224c0,7.016,1.908,13.583,5.225,19.225l2.112-1.731C4.383,31.558,2.681,25.586,2.681,19.224"/>
		<path fill="#FFFFFF" d="M9.746,19.224c0-4.663,1.145-9.062,3.152-12.943l-1.704-1.396 c-2.291,4.272-3.593,9.153-3.593,14.339c0,5.188,1.302,10.068,3.593,14.34l1.704-1.394C10.891,28.288,9.746,23.889,9.746,19.224"/>
		<path fill="#FFFFFF" d="M66.275,19.224c0,4.664-1.143,9.061-3.151,12.943l1.706,1.396 c2.289-4.273,3.59-9.151,3.59-14.339c0-5.186-1.301-10.067-3.59-14.339l-1.705,1.396C65.133,10.162,66.275,14.561,66.275,19.224"/>
		<path fill="#FFFFFF" d="M16.812,19.224c0-2.959,0.612-5.778,1.714-8.341l-1.294-1.057 c-1.299,2.867-2.029,6.046-2.029,9.398c0,3.352,0.73,6.532,2.03,9.401l1.293-1.06C17.425,25.004,16.812,22.185,16.812,19.224"/>
		<path fill="#FFFFFF" d="M59.209,19.224c0,2.959-0.612,5.778-1.712,8.34l1.292,1.058 c1.301-2.867,2.029-6.046,2.029-9.398c0-3.352-0.729-6.531-2.029-9.398l-1.292,1.059C58.597,13.446,59.209,16.265,59.209,19.224"/>
	</g>
</svg>